<svg width="27" height="28" viewBox="0 0 27 28" fill="none" xmlns="http://www.w3.org/2000/svg">
<mask id="path-1-inside-1_713_1367" fill="white">
<path d="M19.5397 27.4049H6.86528C5.0445 27.4049 3.29829 26.6816 2.01079 25.3941C0.723304 24.1067 0 22.3604 0 20.5397V7.86528C0 6.0445 0.723304 4.29829 2.01079 3.01079C3.29829 1.7233 5.0445 1 6.86528 1H19.5397C21.3604 1 23.1067 1.7233 24.3941 3.01079C25.6816 4.29829 26.4049 6.0445 26.4049 7.86528V20.5397C26.4049 22.3604 25.6816 24.1067 24.3941 25.3941C23.1067 26.6816 21.3604 27.4049 19.5397 27.4049ZM6.86528 2.0562C5.32462 2.0562 3.84705 2.66822 2.75764 3.75764C1.66822 4.84705 1.0562 6.32462 1.0562 7.86528V20.5397C1.0562 22.0803 1.66822 23.5579 2.75764 24.6473C3.84705 25.7367 5.32462 26.3487 6.86528 26.3487H19.5397C21.0803 26.3487 22.5579 25.7367 23.6473 24.6473C24.7367 23.5579 25.3487 22.0803 25.3487 20.5397V7.86528C25.3487 6.32462 24.7367 4.84705 23.6473 3.75764C22.5579 2.66822 21.0803 2.0562 19.5397 2.0562H6.86528Z"/>
<path d="M12.731 20.8038C11.5186 20.8038 10.3335 20.4443 9.32548 19.7708C8.31745 19.0972 7.53179 18.1399 7.06785 17.0198C6.60391 15.8998 6.48252 14.6673 6.71903 13.4782C6.95555 12.2892 7.53935 11.197 8.39661 10.3397C9.25386 9.48247 10.3461 8.89867 11.5351 8.66216C12.7242 8.42564 13.9567 8.54703 15.0767 9.01097C16.1968 9.47492 17.1541 10.2606 17.8276 11.2686C18.5012 12.2766 18.8607 13.4617 18.8607 14.6741C18.8593 16.2994 18.213 17.8577 17.0638 19.0069C15.9146 20.1562 14.3562 20.8024 12.731 20.8038ZM12.731 9.60014C11.7262 9.60014 10.744 9.89816 9.90857 10.4565C9.07318 11.0148 8.42217 11.8084 8.03789 12.7368C7.65361 13.6652 7.55334 14.6868 7.74974 15.6722C7.94615 16.6576 8.43042 17.5626 9.14129 18.2727C9.85215 18.9829 10.7577 19.4662 11.7433 19.6616C12.7289 19.857 13.7503 19.7556 14.6783 19.3704C15.6064 18.9852 16.3993 18.3333 16.9567 17.4974C17.5142 16.6614 17.8112 15.6789 17.8102 14.6741C17.8088 13.3274 17.2732 12.0363 16.321 11.0841C15.3687 10.1319 14.0776 9.59627 12.731 9.59488V9.60014Z"/>
<path d="M19.8038 8.5442C19.4307 8.5442 19.0661 8.43359 18.7559 8.22634C18.4458 8.0191 18.204 7.72453 18.0613 7.3799C17.9185 7.03527 17.8812 6.65604 17.9539 6.29018C18.0267 5.92432 18.2063 5.58826 18.4701 5.32448C18.7339 5.06071 19.0699 4.88108 19.4358 4.80831C19.8017 4.73553 20.1809 4.77288 20.5255 4.91564C20.8702 5.05839 21.1647 5.30013 21.372 5.61029C21.5792 5.92045 21.6898 6.28511 21.6898 6.65813C21.6898 7.15835 21.4911 7.63808 21.1374 7.99179C20.7837 8.34549 20.304 8.5442 19.8038 8.5442ZM19.8038 5.84982C19.6439 5.84982 19.4876 5.89723 19.3547 5.98605C19.2218 6.07486 19.1182 6.20111 19.057 6.34881C18.9958 6.49651 18.9798 6.65903 19.011 6.81583C19.0422 6.97263 19.1191 7.11665 19.2322 7.2297C19.3452 7.34274 19.4893 7.41973 19.6461 7.45092C19.8029 7.48211 19.9654 7.4661 20.1131 7.40492C20.2608 7.34374 20.387 7.24014 20.4758 7.10721C20.5647 6.97428 20.6121 6.818 20.6121 6.65813C20.6121 6.44376 20.5269 6.23816 20.3753 6.08657C20.2237 5.93498 20.0181 5.84982 19.8038 5.84982Z"/>
</mask>
<path d="M19.5397 27.4049H6.86528C5.0445 27.4049 3.29829 26.6816 2.01079 25.3941C0.723304 24.1067 0 22.3604 0 20.5397V7.86528C0 6.0445 0.723304 4.29829 2.01079 3.01079C3.29829 1.7233 5.0445 1 6.86528 1H19.5397C21.3604 1 23.1067 1.7233 24.3941 3.01079C25.6816 4.29829 26.4049 6.0445 26.4049 7.86528V20.5397C26.4049 22.3604 25.6816 24.1067 24.3941 25.3941C23.1067 26.6816 21.3604 27.4049 19.5397 27.4049ZM6.86528 2.0562C5.32462 2.0562 3.84705 2.66822 2.75764 3.75764C1.66822 4.84705 1.0562 6.32462 1.0562 7.86528V20.5397C1.0562 22.0803 1.66822 23.5579 2.75764 24.6473C3.84705 25.7367 5.32462 26.3487 6.86528 26.3487H19.5397C21.0803 26.3487 22.5579 25.7367 23.6473 24.6473C24.7367 23.5579 25.3487 22.0803 25.3487 20.5397V7.86528C25.3487 6.32462 24.7367 4.84705 23.6473 3.75764C22.5579 2.66822 21.0803 2.0562 19.5397 2.0562H6.86528Z" fill="white"/>
<path d="M12.731 20.8038C11.5186 20.8038 10.3335 20.4443 9.32548 19.7708C8.31745 19.0972 7.53179 18.1399 7.06785 17.0198C6.60391 15.8998 6.48252 14.6673 6.71903 13.4782C6.95555 12.2892 7.53935 11.197 8.39661 10.3397C9.25386 9.48247 10.3461 8.89867 11.5351 8.66216C12.7242 8.42564 13.9567 8.54703 15.0767 9.01097C16.1968 9.47492 17.1541 10.2606 17.8276 11.2686C18.5012 12.2766 18.8607 13.4617 18.8607 14.6741C18.8593 16.2994 18.213 17.8577 17.0638 19.0069C15.9146 20.1562 14.3562 20.8024 12.731 20.8038ZM12.731 9.60014C11.7262 9.60014 10.744 9.89816 9.90857 10.4565C9.07318 11.0148 8.42217 11.8084 8.03789 12.7368C7.65361 13.6652 7.55334 14.6868 7.74974 15.6722C7.94615 16.6576 8.43042 17.5626 9.14129 18.2727C9.85215 18.9829 10.7577 19.4662 11.7433 19.6616C12.7289 19.857 13.7503 19.7556 14.6783 19.3704C15.6064 18.9852 16.3993 18.3333 16.9567 17.4974C17.5142 16.6614 17.8112 15.6789 17.8102 14.6741C17.8088 13.3274 17.2732 12.0363 16.321 11.0841C15.3687 10.1319 14.0776 9.59627 12.731 9.59488V9.60014Z" fill="white"/>
<path d="M19.8038 8.5442C19.4307 8.5442 19.0661 8.43359 18.7559 8.22634C18.4458 8.0191 18.204 7.72453 18.0613 7.3799C17.9185 7.03527 17.8812 6.65604 17.9539 6.29018C18.0267 5.92432 18.2063 5.58826 18.4701 5.32448C18.7339 5.06071 19.0699 4.88108 19.4358 4.80831C19.8017 4.73553 20.1809 4.77288 20.5255 4.91564C20.8702 5.05839 21.1647 5.30013 21.372 5.61029C21.5792 5.92045 21.6898 6.28511 21.6898 6.65813C21.6898 7.15835 21.4911 7.63808 21.1374 7.99179C20.7837 8.34549 20.304 8.5442 19.8038 8.5442ZM19.8038 5.84982C19.6439 5.84982 19.4876 5.89723 19.3547 5.98605C19.2218 6.07486 19.1182 6.20111 19.057 6.34881C18.9958 6.49651 18.9798 6.65903 19.011 6.81583C19.0422 6.97263 19.1191 7.11665 19.2322 7.2297C19.3452 7.34274 19.4893 7.41973 19.6461 7.45092C19.8029 7.48211 19.9654 7.4661 20.1131 7.40492C20.2608 7.34374 20.387 7.24014 20.4758 7.10721C20.5647 6.97428 20.6121 6.818 20.6121 6.65813C20.6121 6.44376 20.5269 6.23816 20.3753 6.08657C20.2237 5.93498 20.0181 5.84982 19.8038 5.84982Z" fill="white"/>
<path d="M2.01079 25.3941L0.596581 26.8084H0.596581L2.01079 25.3941ZM0 20.5397H-2H0ZM0 7.86528H-2H0ZM2.01079 3.01079L0.596581 1.59658L0.596581 1.59658L2.01079 3.01079ZM6.86528 1V-1V1ZM19.5397 1V-1V1ZM24.3941 3.01079L25.8084 1.59658V1.59658L24.3941 3.01079ZM2.75764 3.75764L1.34343 2.34343L1.34343 2.34343L2.75764 3.75764ZM2.75764 24.6473L1.34343 26.0615L2.75764 24.6473ZM23.6473 3.75764L25.0615 2.34343L23.6473 3.75764ZM12.731 20.8038V22.8038H12.7327L12.731 20.8038ZM7.06785 17.0198L8.91561 16.2545V16.2545L7.06785 17.0198ZM6.71903 13.4782L4.75746 13.0881L6.71903 13.4782ZM11.5351 8.66216L11.1449 6.70059L11.5351 8.66216ZM15.0767 9.01097L14.3113 10.8587H14.3113L15.0767 9.01097ZM18.8607 14.6741L20.8607 14.6758V14.6741H18.8607ZM17.0638 19.0069L18.478 20.4211L18.478 20.4211L17.0638 19.0069ZM12.731 9.60014L12.731 11.6001L14.731 11.6001V9.60014H12.731ZM9.90857 10.4565L8.79721 8.79371H8.79721L9.90857 10.4565ZM8.03789 12.7368L6.18994 11.9719L8.03789 12.7368ZM7.74974 15.6722L9.71116 15.2812L7.74974 15.6722ZM9.14129 18.2727L7.72781 19.6877H7.72781L9.14129 18.2727ZM14.6783 19.3704L15.4451 21.2176H15.4451L14.6783 19.3704ZM16.9567 17.4974L18.6207 18.607V18.607L16.9567 17.4974ZM17.8102 14.6741L15.8102 14.6762V14.6762L17.8102 14.6741ZM16.321 11.0841L17.7352 9.66987L16.321 11.0841ZM12.731 9.59488L12.733 7.59488L10.731 7.59282V9.59488H12.731ZM18.0613 7.3799L16.2135 8.14527L18.0613 7.3799ZM17.9539 6.29018L15.9924 5.9L17.9539 6.29018ZM18.4701 5.32448L19.8843 6.7387L18.4701 5.32448ZM20.5255 4.91564L19.7602 6.7634L20.5255 4.91564ZM21.372 5.61029L19.709 6.72143V6.72143L21.372 5.61029ZM21.1374 7.99179L19.7232 6.57757V6.57757L21.1374 7.99179ZM19.3547 5.98605L20.4658 7.64899L20.4658 7.64899L19.3547 5.98605ZM19.2322 7.2297L17.818 8.64391L17.818 8.64391L19.2322 7.2297ZM19.6461 7.45092L20.0362 5.48935L19.6461 7.45092ZM20.1131 7.40492L19.3477 5.55716L19.3477 5.55716L20.1131 7.40492ZM20.4758 7.10721L18.8129 5.99607V5.99607L20.4758 7.10721ZM19.5397 25.4049H6.86528V29.4049H19.5397V25.4049ZM6.86528 25.4049C5.57493 25.4049 4.33743 24.8923 3.42501 23.9799L0.596581 26.8084C2.25914 28.4709 4.51406 29.4049 6.86528 29.4049V25.4049ZM3.42501 23.9799C2.51259 23.0675 2 21.83 2 20.5397H-2C-2 22.8909 -1.06598 25.1458 0.596581 26.8084L3.42501 23.9799ZM2 20.5397V7.86528H-2V20.5397H2ZM2 7.86528C2 6.57493 2.51259 5.33743 3.42501 4.42501L0.596581 1.59658C-1.06598 3.25915 -2 5.51407 -2 7.86528H2ZM3.42501 4.42501C4.33743 3.51259 5.57493 3 6.86528 3V-1C4.51407 -1 2.25915 -0.0659823 0.596581 1.59658L3.42501 4.42501ZM6.86528 3H19.5397V-1H6.86528V3ZM19.5397 3C20.83 3 22.0675 3.51259 22.9799 4.42501L25.8084 1.59658C24.1458 -0.0659819 21.8909 -1 19.5397 -1V3ZM22.9799 4.42501C23.8923 5.33743 24.4049 6.57493 24.4049 7.86528H28.4049C28.4049 5.51406 27.4709 3.25914 25.8084 1.59658L22.9799 4.42501ZM24.4049 7.86528V20.5397H28.4049V7.86528H24.4049ZM24.4049 20.5397C24.4049 21.83 23.8923 23.0675 22.9799 23.9799L25.8084 26.8084C27.4709 25.1458 28.4049 22.8909 28.4049 20.5397H24.4049ZM22.9799 23.9799C22.0675 24.8923 20.83 25.4049 19.5397 25.4049V29.4049C21.8909 29.4049 24.1458 28.4709 25.8084 26.8084L22.9799 23.9799ZM6.86528 0.0561975C4.79419 0.0561975 2.80791 0.878938 1.34343 2.34343L4.17185 5.17185C4.8862 4.45751 5.85505 4.0562 6.86528 4.0562V0.0561975ZM1.34343 2.34343C-0.121062 3.80791 -0.943802 5.79419 -0.943802 7.86528H3.0562C3.0562 6.85505 3.45751 5.8862 4.17185 5.17185L1.34343 2.34343ZM-0.943802 7.86528V20.5397H3.0562V7.86528H-0.943802ZM-0.943802 20.5397C-0.943802 22.6108 -0.121062 24.597 1.34343 26.0615L4.17185 23.2331C3.45751 22.5187 3.0562 21.5499 3.0562 20.5397H-0.943802ZM1.34343 26.0615C2.80791 27.526 4.79419 28.3487 6.86528 28.3487V24.3487C5.85505 24.3487 4.8862 23.9474 4.17185 23.2331L1.34343 26.0615ZM6.86528 28.3487H19.5397V24.3487H6.86528V28.3487ZM19.5397 28.3487C21.6108 28.3487 23.597 27.526 25.0615 26.0615L22.2331 23.2331C21.5187 23.9474 20.5499 24.3487 19.5397 24.3487V28.3487ZM25.0615 26.0615C26.526 24.597 27.3487 22.6108 27.3487 20.5397H23.3487C23.3487 21.5499 22.9474 22.5187 22.2331 23.2331L25.0615 26.0615ZM27.3487 20.5397V7.86528H23.3487V20.5397H27.3487ZM27.3487 7.86528C27.3487 5.79419 26.526 3.80791 25.0615 2.34343L22.2331 5.17185C22.9474 5.8862 23.3487 6.85505 23.3487 7.86528H27.3487ZM25.0615 2.34343C23.597 0.878938 21.6108 0.0561975 19.5397 0.0561975V4.0562C20.5499 4.0562 21.5187 4.45751 22.2331 5.17185L25.0615 2.34343ZM19.5397 0.0561975H6.86528V4.0562H19.5397V0.0561975ZM12.731 18.8038C11.9142 18.8038 11.1157 18.5616 10.4366 18.1078L8.21434 21.4337C9.55127 22.327 11.1231 22.8038 12.731 22.8038V18.8038ZM10.4366 18.1078C9.75749 17.654 9.22818 17.0091 8.91561 16.2545L5.22009 17.7852C5.83541 19.2707 6.87741 20.5404 8.21434 21.4337L10.4366 18.1078ZM8.91561 16.2545C8.60304 15.4999 8.52126 14.6695 8.6806 13.8684L4.75746 13.0881C4.44378 14.6651 4.60477 16.2997 5.22009 17.7852L8.91561 16.2545ZM8.6806 13.8684C8.83995 13.0673 9.23327 12.3315 9.81082 11.7539L6.98239 8.92551C5.84543 10.0625 5.07115 11.5111 4.75746 13.0881L8.6806 13.8684ZM9.81082 11.7539C10.3884 11.1764 11.1242 10.7831 11.9253 10.6237L11.1449 6.70059C9.56793 7.01427 8.11935 7.78855 6.98239 8.92551L9.81082 11.7539ZM11.9253 10.6237C12.7264 10.4644 13.5567 10.5462 14.3113 10.8587L15.8421 7.16321C14.3566 6.54789 12.722 6.3869 11.1449 6.70059L11.9253 10.6237ZM14.3113 10.8587C15.066 11.1713 15.7109 11.7006 16.1647 12.3797L19.4906 10.1575C18.5973 8.82054 17.3276 7.77853 15.8421 7.16321L14.3113 10.8587ZM16.1647 12.3797C16.6185 13.0589 16.8607 13.8573 16.8607 14.6741H20.8607C20.8607 13.0662 20.3839 11.4944 19.4906 10.1575L16.1647 12.3797ZM16.8607 14.6724C16.8598 15.7678 16.4242 16.8181 15.6496 17.5927L18.478 20.4211C20.0019 18.8972 20.8588 16.8309 20.8607 14.6758L16.8607 14.6724ZM15.6496 17.5927C14.875 18.3673 13.8247 18.8029 12.7293 18.8038L12.7327 22.8038C14.8878 22.802 16.9541 21.945 18.478 20.4211L15.6496 17.5927ZM12.731 7.60014C11.3305 7.60014 9.96154 8.01551 8.79721 8.79371L11.0199 12.1193C11.5264 11.7808 12.1218 11.6001 12.731 11.6001L12.731 7.60014ZM8.79721 8.79371C7.63288 9.57191 6.72553 10.678 6.18994 11.9719L9.88585 13.5017C10.1188 12.9389 10.5135 12.4578 11.0199 12.1193L8.79721 8.79371ZM6.18994 11.9719C5.65434 13.2659 5.51458 14.6897 5.78833 16.0631L9.71116 15.2812C9.59209 14.6838 9.65289 14.0646 9.88585 13.5017L6.18994 11.9719ZM5.78833 16.0631C6.06207 17.4366 6.73703 18.6979 7.72781 19.6877L10.5548 16.8578C10.1238 16.4273 9.83023 15.8786 9.71116 15.2812L5.78833 16.0631ZM7.72781 19.6877C8.71858 20.6774 9.98066 21.3511 11.3544 21.6234L12.1322 17.6998C11.5347 17.5813 10.9857 17.2883 10.5548 16.8578L7.72781 19.6877ZM11.3544 21.6234C12.7281 21.8957 14.1517 21.7545 15.4451 21.2176L13.9115 17.5232C13.3489 17.7568 12.7297 17.8182 12.1322 17.6998L11.3544 21.6234ZM15.4451 21.2176C16.7386 20.6806 17.8437 19.7721 18.6207 18.607L15.2928 16.3877C14.9548 16.8945 14.4741 17.2897 13.9115 17.5232L15.4451 21.2176ZM18.6207 18.607C19.3977 17.4419 19.8116 16.0725 19.8102 14.672L15.8102 14.6762C15.8108 15.2853 15.6308 15.881 15.2928 16.3877L18.6207 18.607ZM19.8102 14.672C19.8082 12.7956 19.062 10.9967 17.7352 9.66987L14.9068 12.4983C15.4844 13.076 15.8093 13.8592 15.8102 14.6762L19.8102 14.672ZM17.7352 9.66987C16.4084 8.34307 14.6094 7.59682 12.733 7.59488L12.7289 11.5949C13.5459 11.5957 14.3291 11.9206 14.9068 12.4983L17.7352 9.66987ZM10.731 9.59488V9.60014H14.731V9.59488H10.731ZM19.8038 6.5442C19.8263 6.5442 19.8483 6.55088 19.8671 6.5634L17.6448 9.88928C18.2838 10.3163 19.0352 10.5442 19.8038 10.5442V6.5442ZM19.8671 6.5634C19.8858 6.57592 19.9004 6.59371 19.909 6.61453L16.2135 8.14527C16.5076 8.85536 17.0057 9.46228 17.6448 9.88928L19.8671 6.5634ZM19.909 6.61453C19.9176 6.63536 19.9199 6.65827 19.9155 6.68036L15.9924 5.9C15.8424 6.65382 15.9194 7.43518 16.2135 8.14527L19.909 6.61453ZM19.9155 6.68036C19.9111 6.70246 19.9003 6.72276 19.8843 6.7387L17.0559 3.91027C16.5124 4.45375 16.1423 5.14618 15.9924 5.9L19.9155 6.68036ZM19.8843 6.7387C19.8684 6.75463 19.8481 6.76548 19.826 6.76988L19.0456 2.84674C18.2918 2.99668 17.5994 3.3668 17.0559 3.91027L19.8843 6.7387ZM19.826 6.76988C19.8039 6.77427 19.781 6.77202 19.7602 6.7634L21.2909 3.06788C20.5808 2.77375 19.7994 2.69679 19.0456 2.84674L19.826 6.76988ZM19.7602 6.7634C19.7393 6.75477 19.7215 6.74017 19.709 6.72143L23.0349 4.49915C22.6079 3.86009 22.001 3.362 21.2909 3.06788L19.7602 6.7634ZM19.709 6.72143C19.6965 6.7027 19.6898 6.68067 19.6898 6.65813H23.6898C23.6898 5.88954 23.4619 5.13821 23.0349 4.49915L19.709 6.72143ZM19.6898 6.65813C19.6898 6.62791 19.7018 6.59894 19.7232 6.57757L22.5516 9.406C23.2804 8.67722 23.6898 7.68879 23.6898 6.65813H19.6898ZM19.7232 6.57757C19.7446 6.5562 19.7735 6.5442 19.8038 6.5442V10.5442C20.8344 10.5442 21.8228 10.1348 22.5516 9.406L19.7232 6.57757ZM19.8038 3.84982C19.2483 3.84982 18.7054 4.01453 18.2435 4.32311L20.4658 7.64899C20.2699 7.77993 20.0395 7.84982 19.8038 7.84982V3.84982ZM18.2435 4.32311C17.7817 4.63169 17.4218 5.07028 17.2092 5.58344L20.9047 7.11417C20.8145 7.33193 20.6618 7.51804 20.4658 7.64899L18.2435 4.32311ZM17.2092 5.58344C16.9967 6.09659 16.941 6.66125 17.0494 7.20601L20.9725 6.42565C21.0185 6.65681 20.9949 6.89642 20.9047 7.11417L17.2092 5.58344ZM17.0494 7.20601C17.1578 7.75077 17.4252 8.25116 17.818 8.64391L20.6464 5.81549C20.8131 5.98215 20.9266 6.19448 20.9725 6.42565L17.0494 7.20601ZM17.818 8.64391C18.2107 9.03666 18.7111 9.30413 19.2559 9.41249L20.0362 5.48935C20.2674 5.53533 20.4797 5.64883 20.6464 5.81549L17.818 8.64391ZM19.2559 9.41249C19.8006 9.52085 20.3653 9.46523 20.8785 9.25268L19.3477 5.55716C19.5655 5.46696 19.8051 5.44337 20.0362 5.48935L19.2559 9.41249ZM20.8785 9.25268C21.3916 9.04012 21.8302 8.68018 22.1388 8.21835L18.8129 5.99607C18.9439 5.8001 19.13 5.64736 19.3477 5.55716L20.8785 9.25268ZM22.1388 8.21835C22.4474 7.75653 22.6121 7.21357 22.6121 6.65813H18.6121C18.6121 6.42243 18.682 6.19203 18.8129 5.99607L22.1388 8.21835ZM22.6121 6.65813C22.6121 5.91332 22.3162 5.19902 21.7895 4.67236L18.9611 7.50078C18.7376 7.2773 18.6121 6.97419 18.6121 6.65813H22.6121ZM21.7895 4.67236C21.2629 4.1457 20.5486 3.84982 19.8038 3.84982V7.84982C19.4877 7.84982 19.1846 7.72427 18.9611 7.50078L21.7895 4.67236Z" fill="white" mask="url(#path-1-inside-1_713_1367)"/>
</svg>
