<svg width="540" height="27" viewBox="0 0 540 27" fill="none" xmlns="http://www.w3.org/2000/svg">
<path d="M0.619969 17.612V14.624H10.304V17.612H0.619969ZM38.9732 26.288C37.0532 26.288 35.2652 25.964 33.6092 25.316C31.9772 24.668 30.5612 23.768 29.3612 22.616C28.1612 21.44 27.2252 20.072 26.5532 18.512C25.8812 16.952 25.5452 15.248 25.5452 13.4C25.5452 11.552 25.8812 9.848 26.5532 8.288C27.2252 6.728 28.1612 5.372 29.3612 4.22C30.5612 3.044 31.9772 2.132 33.6092 1.484C35.2412 0.835999 37.0292 0.512 38.9732 0.512C40.8932 0.512 42.6572 0.835999 44.2652 1.484C45.8972 2.108 47.3132 3.008 48.5132 4.184C49.7372 5.336 50.6732 6.692 51.3212 8.252C51.9932 9.812 52.3292 11.528 52.3292 13.4C52.3292 15.272 51.9932 16.988 51.3212 18.548C50.6732 20.108 49.7372 21.476 48.5132 22.652C47.3132 23.804 45.8972 24.704 44.2652 25.352C42.6572 25.976 40.8932 26.288 38.9732 26.288ZM38.9732 23.084C40.3652 23.084 41.6492 22.844 42.8252 22.364C44.0252 21.884 45.0572 21.212 45.9212 20.348C46.8092 19.46 47.4932 18.428 47.9732 17.252C48.4772 16.076 48.7292 14.792 48.7292 13.4C48.7292 12.008 48.4772 10.724 47.9732 9.548C47.4932 8.372 46.8092 7.352 45.9212 6.488C45.0572 5.6 44.0252 4.916 42.8252 4.436C41.6492 3.956 40.3652 3.716 38.9732 3.716C37.5572 3.716 36.2492 3.956 35.0492 4.436C33.8732 4.916 32.8412 5.6 31.9532 6.488C31.0652 7.352 30.3692 8.372 29.8652 9.548C29.3852 10.724 29.1452 12.008 29.1452 13.4C29.1452 14.792 29.3852 16.076 29.8652 17.252C30.3692 18.428 31.0652 19.46 31.9532 20.348C32.8412 21.212 33.8732 21.884 35.0492 22.364C36.2492 22.844 37.5572 23.084 38.9732 23.084ZM69.1716 26.288C65.8596 26.288 63.2556 25.34 61.3596 23.444C59.4636 21.548 58.5156 18.776 58.5156 15.128V0.799998H62.1156V14.984C62.1156 17.792 62.7276 19.844 63.9516 21.14C65.1996 22.436 66.9516 23.084 69.2076 23.084C71.4876 23.084 73.2396 22.436 74.4636 21.14C75.7116 19.844 76.3356 17.792 76.3356 14.984V0.799998H79.8276V15.128C79.8276 18.776 78.8796 21.548 76.9836 23.444C75.1116 25.34 72.5076 26.288 69.1716 26.288ZM92.6551 26V3.932H84.0151V0.799998H104.859V3.932H96.2191V26H92.6551ZM109.68 26V0.799998H113.28V22.868H126.924V26H109.68ZM131.955 26V0.799998H135.555V26H131.955ZM144 26V0.799998H146.952L163.62 21.5H162.072V0.799998H165.672V26H162.72L146.052 5.3H147.6V26H144ZM177.39 11.672H190.35V14.732H177.39V11.672ZM177.714 22.868H192.402V26H174.114V0.799998H191.898V3.932H177.714V22.868ZM214.704 26V3.932H206.064V0.799998H226.908V3.932H218.268V26H214.704ZM226.647 26L238.059 0.799998H241.623L253.071 26H249.291L239.103 2.816H240.543L230.355 26H226.647ZM231.507 19.7L232.479 16.82H246.663L247.707 19.7H231.507ZM261.468 26V3.932H252.828V0.799998H273.672V3.932H265.032V26H261.468ZM283.849 26V3.932H275.209V0.799998H296.053V3.932H287.413V26H283.849ZM311.898 26.288C309.978 26.288 308.19 25.964 306.534 25.316C304.902 24.668 303.486 23.768 302.286 22.616C301.086 21.44 300.15 20.072 299.478 18.512C298.806 16.952 298.47 15.248 298.47 13.4C298.47 11.552 298.806 9.848 299.478 8.288C300.15 6.728 301.086 5.372 302.286 4.22C303.486 3.044 304.902 2.132 306.534 1.484C308.166 0.835999 309.954 0.512 311.898 0.512C313.818 0.512 315.582 0.835999 317.19 1.484C318.822 2.108 320.238 3.008 321.438 4.184C322.662 5.336 323.598 6.692 324.246 8.252C324.918 9.812 325.254 11.528 325.254 13.4C325.254 15.272 324.918 16.988 324.246 18.548C323.598 20.108 322.662 21.476 321.438 22.652C320.238 23.804 318.822 24.704 317.19 25.352C315.582 25.976 313.818 26.288 311.898 26.288ZM311.898 23.084C313.29 23.084 314.574 22.844 315.75 22.364C316.95 21.884 317.982 21.212 318.846 20.348C319.734 19.46 320.418 18.428 320.898 17.252C321.402 16.076 321.654 14.792 321.654 13.4C321.654 12.008 321.402 10.724 320.898 9.548C320.418 8.372 319.734 7.352 318.846 6.488C317.982 5.6 316.95 4.916 315.75 4.436C314.574 3.956 313.29 3.716 311.898 3.716C310.482 3.716 309.174 3.956 307.974 4.436C306.798 4.916 305.766 5.6 304.878 6.488C303.99 7.352 303.294 8.372 302.79 9.548C302.31 10.724 302.07 12.008 302.07 13.4C302.07 14.792 302.31 16.076 302.79 17.252C303.294 18.428 303.99 19.46 304.878 20.348C305.766 21.212 306.798 21.884 307.974 22.364C309.174 22.844 310.482 23.084 311.898 23.084ZM343.033 26.288C341.113 26.288 339.325 25.964 337.669 25.316C336.037 24.668 334.621 23.768 333.421 22.616C332.221 21.44 331.285 20.072 330.613 18.512C329.941 16.952 329.605 15.248 329.605 13.4C329.605 11.552 329.941 9.848 330.613 8.288C331.285 6.728 332.221 5.372 333.421 4.22C334.621 3.044 336.037 2.132 337.669 1.484C339.301 0.835999 341.089 0.512 343.033 0.512C344.953 0.512 346.717 0.835999 348.325 1.484C349.957 2.108 351.373 3.008 352.573 4.184C353.797 5.336 354.733 6.692 355.381 8.252C356.053 9.812 356.389 11.528 356.389 13.4C356.389 15.272 356.053 16.988 355.381 18.548C354.733 20.108 353.797 21.476 352.573 22.652C351.373 23.804 349.957 24.704 348.325 25.352C346.717 25.976 344.953 26.288 343.033 26.288ZM343.033 23.084C344.425 23.084 345.709 22.844 346.885 22.364C348.085 21.884 349.117 21.212 349.981 20.348C350.869 19.46 351.553 18.428 352.033 17.252C352.537 16.076 352.789 14.792 352.789 13.4C352.789 12.008 352.537 10.724 352.033 9.548C351.553 8.372 350.869 7.352 349.981 6.488C349.117 5.6 348.085 4.916 346.885 4.436C345.709 3.956 344.425 3.716 343.033 3.716C341.617 3.716 340.309 3.956 339.109 4.436C337.933 4.916 336.901 5.6 336.013 6.488C335.125 7.352 334.429 8.372 333.925 9.548C333.445 10.724 333.205 12.008 333.205 13.4C333.205 14.792 333.445 16.076 333.925 17.252C334.429 18.428 335.125 19.46 336.013 20.348C336.901 21.212 337.933 21.884 339.109 22.364C340.309 22.844 341.617 23.084 343.033 23.084ZM380.703 26.288C378.783 26.288 376.947 26 375.195 25.424C373.443 24.824 372.063 24.056 371.055 23.12L372.387 20.312C373.347 21.152 374.571 21.848 376.059 22.4C377.547 22.952 379.095 23.228 380.703 23.228C382.167 23.228 383.355 23.06 384.267 22.724C385.179 22.388 385.851 21.932 386.283 21.356C386.715 20.756 386.931 20.084 386.931 19.34C386.931 18.476 386.643 17.78 386.067 17.252C385.515 16.724 384.783 16.304 383.871 15.992C382.983 15.656 381.999 15.368 380.919 15.128C379.839 14.888 378.747 14.612 377.643 14.3C376.563 13.964 375.567 13.544 374.655 13.04C373.767 12.536 373.047 11.864 372.495 11.024C371.943 10.16 371.667 9.056 371.667 7.712C371.667 6.416 372.003 5.228 372.675 4.148C373.371 3.044 374.427 2.168 375.843 1.52C377.283 0.848 379.107 0.512 381.315 0.512C382.779 0.512 384.231 0.704 385.671 1.088C387.111 1.472 388.359 2.024 389.415 2.744L388.227 5.624C387.147 4.904 386.007 4.388 384.807 4.076C383.607 3.74 382.443 3.572 381.315 3.572C379.899 3.572 378.735 3.752 377.823 4.112C376.911 4.472 376.239 4.952 375.807 5.552C375.399 6.152 375.195 6.824 375.195 7.568C375.195 8.456 375.471 9.164 376.023 9.692C376.599 10.22 377.331 10.64 378.219 10.952C379.131 11.264 380.127 11.552 381.207 11.816C382.287 12.056 383.367 12.332 384.447 12.644C385.551 12.956 386.547 13.364 387.435 13.868C388.347 14.372 389.079 15.044 389.631 15.884C390.183 16.724 390.459 17.804 390.459 19.124C390.459 20.396 390.111 21.584 389.415 22.688C388.719 23.768 387.639 24.644 386.175 25.316C384.735 25.964 382.911 26.288 380.703 26.288ZM401.271 26V3.932H392.631V0.799998H413.475V3.932H404.835V26H401.271ZM428.279 26.288C424.967 26.288 422.363 25.34 420.467 23.444C418.571 21.548 417.623 18.776 417.623 15.128V0.799998H421.223V14.984C421.223 17.792 421.835 19.844 423.059 21.14C424.307 22.436 426.059 23.084 428.315 23.084C430.595 23.084 432.347 22.436 433.571 21.14C434.819 19.844 435.443 17.792 435.443 14.984V0.799998H438.935V15.128C438.935 18.776 437.987 21.548 436.091 23.444C434.219 25.34 431.615 26.288 428.279 26.288ZM447.215 26V0.799998H457.835C460.523 0.799998 462.887 1.328 464.927 2.384C466.991 3.44 468.587 4.916 469.715 6.812C470.867 8.708 471.443 10.904 471.443 13.4C471.443 15.896 470.867 18.092 469.715 19.988C468.587 21.884 466.991 23.36 464.927 24.416C462.887 25.472 460.523 26 457.835 26H447.215ZM450.815 22.868H457.619C459.707 22.868 461.507 22.472 463.019 21.68C464.555 20.888 465.743 19.784 466.583 18.368C467.423 16.928 467.843 15.272 467.843 13.4C467.843 11.504 467.423 9.848 466.583 8.432C465.743 7.016 464.555 5.912 463.019 5.12C461.507 4.328 459.707 3.932 457.619 3.932H450.815V22.868ZM477.857 26V0.799998H481.457V26H477.857ZM501.278 26.288C499.358 26.288 497.57 25.964 495.914 25.316C494.282 24.668 492.866 23.768 491.666 22.616C490.466 21.44 489.53 20.072 488.858 18.512C488.186 16.952 487.85 15.248 487.85 13.4C487.85 11.552 488.186 9.848 488.858 8.288C489.53 6.728 490.466 5.372 491.666 4.22C492.866 3.044 494.282 2.132 495.914 1.484C497.546 0.835999 499.334 0.512 501.278 0.512C503.198 0.512 504.962 0.835999 506.57 1.484C508.202 2.108 509.618 3.008 510.818 4.184C512.042 5.336 512.978 6.692 513.626 8.252C514.298 9.812 514.634 11.528 514.634 13.4C514.634 15.272 514.298 16.988 513.626 18.548C512.978 20.108 512.042 21.476 510.818 22.652C509.618 23.804 508.202 24.704 506.57 25.352C504.962 25.976 503.198 26.288 501.278 26.288ZM501.278 23.084C502.67 23.084 503.954 22.844 505.13 22.364C506.33 21.884 507.362 21.212 508.226 20.348C509.114 19.46 509.798 18.428 510.278 17.252C510.782 16.076 511.034 14.792 511.034 13.4C511.034 12.008 510.782 10.724 510.278 9.548C509.798 8.372 509.114 7.352 508.226 6.488C507.362 5.6 506.33 4.916 505.13 4.436C503.954 3.956 502.67 3.716 501.278 3.716C499.862 3.716 498.554 3.956 497.354 4.436C496.178 4.916 495.146 5.6 494.258 6.488C493.37 7.352 492.674 8.372 492.17 9.548C491.69 10.724 491.45 12.008 491.45 13.4C491.45 14.792 491.69 16.076 492.17 17.252C492.674 18.428 493.37 19.46 494.258 20.348C495.146 21.212 496.178 21.884 497.354 22.364C498.554 22.844 499.862 23.084 501.278 23.084ZM529.876 17.612V14.624H539.56V17.612H529.876Z" fill="#CACACA"/>
</svg>
